<svg
    width="22"
    height="22"
    viewBox="0 0 22 22"
    fill="none"
    xmlns="http://www.w3.org/2000/svg"
>
    <g clipPath="url(#clip0_67_10852)">
    <path
        d="M21.0702 8.21725H19.3544C19.2152 7.84445 19.076 7.47164 18.8918 7.14824L20.1 5.94C20.4728 5.57168 20.4728 5.01472 20.1 4.64191L17.4051 1.94694C17.0368 1.57413 16.4798 1.57413 16.107 1.94694L14.8538 3.2001C14.5304 3.06086 14.1576 2.92162 13.8342 2.78238V1.01717C13.8342 0.505124 13.4165 0.0874023 12.9045 0.0874023H9.09555C8.5835 0.0874023 8.16578 0.505124 8.16578 1.01717V2.68356C7.79747 2.8228 7.46958 2.96205 7.14618 3.10129L5.89302 1.84812C5.5247 1.47532 4.96774 1.47532 4.59494 1.84812L1.89996 4.5431C1.52715 4.91141 1.52715 5.46837 1.89996 5.84118L3.10821 7.04943C2.92405 7.42223 2.78481 7.74563 2.64557 8.11843H0.929767C0.417722 8.11843 0 8.53616 0 9.0482V12.8571C0 13.3691 0.417722 13.7869 0.929767 13.7869H2.50633C2.64557 14.1597 2.78481 14.528 2.96897 14.9008L1.81013 16.0596C1.62597 16.2438 1.2891 16.7918 1.81013 17.3577L4.5051 20.0527C4.87342 20.4255 5.43038 20.4255 5.80318 20.0527L6.91711 18.9388C7.28542 19.1723 7.65823 19.3116 8.07595 19.4508V20.9825C8.07595 21.4945 8.49367 21.9122 9.00572 21.9122H12.8146C13.3267 21.9122 13.7444 21.4945 13.6995 21.0813V19.5496C14.0678 19.4104 14.4855 19.2217 14.8583 19.0376L15.9722 20.1515C16.3405 20.5243 16.8975 20.5243 17.2703 20.1515L19.9653 17.4565C20.3381 17.0882 20.3381 16.5313 19.9653 16.1585L18.8065 14.9996C18.9906 14.6268 19.1299 14.2585 19.2691 13.8857H21.0702C21.5823 13.8857 22 13.468 22 12.9559V9.14702C22 8.63497 21.5823 8.21725 21.0702 8.21725ZM20.0147 11.9812H18.6223C18.2046 11.9812 17.8363 12.2597 17.7419 12.6774C17.5533 13.3736 17.3242 14.0249 16.9514 14.6268C16.7178 14.9996 16.8122 15.4622 17.0907 15.7407L18.0653 16.7154L16.6729 18.1078L15.7432 17.1781C15.4647 16.8547 15.002 16.8052 14.6292 17.0388C13.978 17.4116 13.3267 17.6901 12.6305 17.8743C12.2127 17.9641 11.9343 18.3369 11.9343 18.7546V20.1021H9.93548V20.0976H9.89057V18.7501C9.89057 18.3324 9.61209 17.9641 9.19437 17.8698C8.49367 17.6856 7.79747 17.4071 7.19559 17.0343C6.82278 16.8008 6.36015 16.8951 6.08167 17.1736L5.1519 18.1033L3.75949 16.7109L4.73418 15.7362C5.01266 15.4128 5.10698 14.9951 4.87342 14.6223C4.50061 14.0204 4.22213 13.3691 4.08289 12.6729C3.99306 12.2552 3.62025 11.9767 3.20253 11.9767H1.81013V9.97797H3.29686C3.71458 9.97797 4.08289 9.69949 4.17722 9.28177C4.31646 8.63048 4.59494 8.02411 4.96774 7.42223C5.20131 7.04943 5.10698 6.58679 4.8285 6.30831L3.75949 5.2393L5.1519 3.8469L6.22091 4.9159C6.5443 5.19438 6.96203 5.28871 7.33483 5.05514C7.9412 4.73175 8.54308 4.45327 9.19437 4.31403C9.61209 4.22419 9.89057 3.85139 9.89057 3.43367V1.90202H11.8893V3.48307C11.8893 3.9008 12.1678 4.26911 12.5855 4.36343C13.2368 4.50267 13.8881 4.78116 14.4451 5.10455C14.8179 5.33812 15.2805 5.24379 15.559 4.96531L16.6729 3.85139L18.0653 5.24379L16.9963 6.3128C16.6729 6.59128 16.6235 7.05392 16.8571 7.42672C17.185 7.98818 17.4635 8.63497 17.6476 9.28626C17.7374 9.70398 18.1103 9.98246 18.528 9.98246H20.0147V11.9812Z"
        fill="#212121"
    />
    <path
        d="M10.9102 5.93994C8.1254 5.93994 5.84814 8.2172 5.84814 11.002C5.84814 13.7868 8.1254 16.0641 10.9102 16.0641C13.6995 16.0641 15.9723 13.7868 15.9723 11.002C15.9723 8.2172 13.695 5.93994 10.9102 5.93994ZM10.9102 14.2539C9.145 14.2539 7.65827 12.8121 7.65827 11.002C7.65827 9.2368 9.10008 7.75007 10.9102 7.75007C12.7203 7.75007 14.1621 9.19188 14.1621 11.002C14.1621 12.7672 12.6754 14.2539 10.9102 14.2539Z"
        fill="#212121"
    />
    </g>
    <defs>
    <clipPath id="clip0_67_10852">
        <rect width="22" height="22" fill="white" />
    </clipPath>
    </defs>
</svg>