<svg width="23" height="23" viewBox="0 0 23 23" fill="none" xmlns="http://www.w3.org/2000/svg">
<path d="M21.7544 21.8757H20.9491V20.8577H21.7543C22.0647 20.8577 22.3164 20.606 22.3164 20.2956C22.3164 17.1597 19.9103 14.5751 16.8474 14.2906V13.3188C16.8474 13.0084 16.5958 12.7568 16.2854 12.7568C15.9749 12.7568 15.7233 13.0084 15.7233 13.3188V14.2906C12.6604 14.5751 10.2544 17.1597 10.2544 20.2956C10.2544 20.606 10.506 20.8577 10.8164 20.8577H11.6216V21.8757H10.8164C10.506 21.8757 10.2544 22.1274 10.2544 22.4378C10.2544 22.7482 10.506 22.9998 10.8164 22.9998H12.1726C12.18 23 12.1873 23 12.1947 22.9998H20.376C20.3797 22.9999 20.3834 22.9999 20.387 22.9999C20.3907 22.9999 20.3944 22.9999 20.3981 22.9998H21.7544C22.0649 22.9998 22.3165 22.7482 22.3165 22.4378C22.3165 22.1274 22.0648 21.8757 21.7544 21.8757ZM19.8249 21.8757H12.7456V20.8577H19.8249V21.8757ZM11.4104 19.7336C11.6901 17.2917 13.7697 15.3887 16.2853 15.3887C18.8009 15.3887 20.8805 17.2917 21.1602 19.7336H11.4104ZM7.39821 5.46901C5.74676 5.46901 4.45311 6.41375 4.45311 7.61979C4.45311 8.82576 5.74676 9.77045 7.39821 9.77045C9.04967 9.77045 10.3433 8.82576 10.3433 7.61979C10.3433 6.4137 9.04967 5.46901 7.39821 5.46901ZM7.39821 8.6463C6.32505 8.6463 5.57719 8.10534 5.57719 7.61973C5.57719 7.13412 6.32505 6.59305 7.39821 6.59305C8.47132 6.59305 9.21918 7.13412 9.21918 7.61973C9.21918 8.10528 8.47132 8.6463 7.39821 8.6463ZM8.722 21.8759H1.80768V3.85854H12.9887V13.2177C12.9887 13.5281 13.2404 13.7797 13.5508 13.7797C13.8612 13.7797 14.1128 13.5281 14.1128 13.2177V3.29649C14.1128 2.98607 13.8612 2.73445 13.5508 2.73445H13.2866V0.562038C13.2866 0.401406 13.2178 0.248417 13.0977 0.141741C12.9776 0.0351218 12.8176 -0.0150125 12.6581 0.00392835L1.17915 1.37121C0.89644 1.40488 0.683594 1.64459 0.683594 1.92932V22.4379C0.683594 22.7483 0.935221 22.9999 1.24564 22.9999H8.722C9.03241 22.9999 9.28404 22.7483 9.28404 22.4379C9.28404 22.1275 9.03241 21.8759 8.722 21.8759ZM1.80768 2.42836L12.1625 1.19501V2.7345H1.80768V2.42836ZM6.45168 20.2655C6.14126 20.2655 5.88963 20.0139 5.88963 19.7034C5.88963 19.393 6.14126 19.1414 6.45168 19.1414H8.3447C8.65511 19.1414 8.90674 19.393 8.90674 19.7034C8.90674 20.0139 8.65511 20.2655 8.3447 20.2655H6.45168Z" fill="#6FB327"/>
</svg>
